<svg width="204" height="128" viewBox="0 0 204 128" fill="none" xmlns="http://www.w3.org/2000/svg">
<path d="M197.992 6.41714C185.628 1.76857 173.254 3.43645e-07 160.887 3.43645e-07C121.627 -0.0028568 82.3701 17.8114 43.1103 17.8114C33.2642 17.8114 23.4246 16.6914 13.5785 13.8914C12.4725 13.5771 11.3633 13.4286 10.2795 13.4286C4.79393 13.4286 0 17.2343 0 22.5171V113.163C0 116.771 2.30453 120.191 6.00516 121.58C18.3693 126.231 30.743 128 43.1103 128C82.3701 128 121.63 110.186 160.89 110.186C170.736 110.186 180.575 111.306 190.421 114.106C191.527 114.42 192.637 114.569 193.72 114.569C199.206 114.569 204 110.763 204 105.48V14.8371C203.997 11.2257 201.692 7.80857 197.992 6.41714ZM15.2998 28.6343C21.7129 30.0743 28.4066 30.7971 35.2915 31.1857C33.4172 39.5829 25.1809 45.9114 15.2998 45.9114V28.6343ZM15.2998 110.063V96.4114C26.255 96.4114 35.1193 104.203 35.607 113.954C28.4257 113.437 21.7129 112.151 15.2998 110.063ZM101.998 91.4286C87.9131 91.4286 76.4988 79.1457 76.4988 64C76.4988 48.8514 87.9163 36.5714 101.998 36.5714C116.081 36.5714 127.498 48.8514 127.498 64C127.498 79.1514 116.077 91.4286 101.998 91.4286ZM188.697 99.3657C183.113 98.1114 177.315 97.4086 171.383 96.9543C173.254 89.5029 180.148 83.8457 188.697 82.8743V99.3657ZM188.697 31.9057C178.851 30.7886 171.211 23.42 170.908 14.32C177.136 14.94 183.049 16.1 188.697 17.9371V31.9057Z" fill="#68B766"/>
</svg>
