<svg width="45" height="48" viewBox="0 0 45 48" fill="none" xmlns="http://www.w3.org/2000/svg">
<path d="M15.0514 38.6495C15.0514 38.848 14.8427 39.0068 14.5796 39.0068C14.2802 39.0366 14.0716 38.8778 14.0716 38.6495C14.0716 38.451 14.2802 38.2922 14.5433 38.2922C14.8155 38.2624 15.0514 38.4212 15.0514 38.6495ZM12.2298 38.2029C12.1663 38.4014 12.3478 38.6297 12.62 38.6892C12.8558 38.7885 13.128 38.6892 13.1825 38.4907C13.2369 38.2922 13.0645 38.0639 12.7923 37.9746C12.5565 37.9051 12.2933 38.0044 12.2298 38.2029ZM16.2399 38.0342C15.9768 38.1036 15.7954 38.2922 15.8226 38.5205C15.8498 38.719 16.0857 38.848 16.3579 38.7786C16.621 38.7091 16.8024 38.5205 16.7752 38.322C16.748 38.1334 16.503 38.0044 16.2399 38.0342ZM22.2097 0C9.62601 0 0 10.4515 0 24.218C0 35.2253 6.33266 44.6445 15.378 47.9596C16.5393 48.1878 16.9476 47.4037 16.9476 46.7586C16.9476 46.1432 16.9204 42.7487 16.9204 40.6644C16.9204 40.6644 10.5696 42.1532 9.23589 37.7066C9.23589 37.7066 8.20161 34.8183 6.71371 34.0739C6.71371 34.0739 4.63609 32.5156 6.85887 32.5454C6.85887 32.5454 9.11794 32.7439 10.3609 35.1062C12.3478 38.9374 15.6774 37.8356 16.9748 37.1806C17.1835 35.5925 17.7732 34.4908 18.4264 33.8357C13.3548 33.2203 8.2379 32.4164 8.2379 22.8681C8.2379 20.1386 8.92742 18.7689 10.379 17.0221C10.1431 16.3769 9.37198 13.7169 10.6149 10.2827C12.5111 9.63757 16.875 12.9626 16.875 12.9626C18.6895 12.4068 20.6401 12.1189 22.5726 12.1189C24.505 12.1189 26.4556 12.4068 28.2702 12.9626C28.2702 12.9626 32.6341 9.62764 34.5302 10.2827C35.7732 13.7268 35.002 16.3769 34.7661 17.0221C36.2177 18.7789 37.1069 20.1486 37.1069 22.8681C37.1069 32.4462 31.7631 33.2104 26.6915 33.8357C27.5262 34.6198 28.2339 36.1086 28.2339 38.4411C28.2339 41.786 28.2067 45.9249 28.2067 46.7387C28.2067 47.3839 28.624 48.168 29.7762 47.9397C38.8488 44.6445 45 35.2253 45 24.218C45 10.4515 34.7933 0 22.2097 0ZM8.81855 34.2327C8.7006 34.332 8.72782 34.5603 8.88206 34.7488C9.02722 34.9077 9.23589 34.9771 9.35383 34.8481C9.47177 34.7488 9.44456 34.5206 9.29032 34.332C9.14516 34.1732 8.93649 34.1037 8.81855 34.2327ZM7.83871 33.4288C7.7752 33.5578 7.86593 33.7166 8.04738 33.8159C8.19254 33.9151 8.37399 33.8853 8.4375 33.7464C8.50101 33.6173 8.41028 33.4585 8.22883 33.3593C8.04738 33.2997 7.90222 33.3295 7.83871 33.4288ZM10.7782 36.9622C10.6331 37.0912 10.6875 37.389 10.8962 37.5776C11.1048 37.8059 11.3679 37.8356 11.4859 37.6768C11.6038 37.5478 11.5494 37.25 11.3679 37.0615C11.1683 36.8332 10.8962 36.8034 10.7782 36.9622ZM9.74395 35.5032C9.59879 35.6024 9.59879 35.8605 9.74395 36.0888C9.88911 36.3171 10.1341 36.4163 10.252 36.3171C10.3972 36.188 10.3972 35.93 10.252 35.7017C10.125 35.4734 9.88911 35.3741 9.74395 35.5032Z" fill="white"/>
</svg>
