<svg width="45" height="48" viewBox="0 0 45 48" fill="none" xmlns="http://www.w3.org/2000/svg">
<path d="M41.7857 0H3.20424C1.43638 0 0 1.55357 0 3.46071V44.5393C0 46.4464 1.43638 48 3.20424 48H41.7857C43.5536 48 45 46.4464 45 44.5393V3.46071C45 1.55357 43.5536 0 41.7857 0ZM13.6004 41.1429H6.9308V18.2357H13.6105V41.1429H13.6004ZM10.2656 15.1071C8.12612 15.1071 6.39844 13.2536 6.39844 10.9821C6.39844 8.71071 8.12612 6.85714 10.2656 6.85714C12.3951 6.85714 14.1328 8.71071 14.1328 10.9821C14.1328 13.2643 12.4051 15.1071 10.2656 15.1071ZM38.6016 41.1429H31.9319V30C31.9319 27.3429 31.8817 23.925 28.4665 23.925C24.9911 23.925 24.4587 26.8179 24.4587 29.8071V41.1429H17.7891V18.2357H24.1875V21.3643H24.2779C25.1719 19.5643 27.3516 17.6679 30.596 17.6679C37.346 17.6679 38.6016 22.4143 38.6016 28.5857V41.1429Z" fill="white"/>
</svg>
