<svg width="102" height="89" viewBox="0 0 102 89" fill="none" xmlns="http://www.w3.org/2000/svg">
<path d="M99.1666 38.9375H93.9424C92.384 35.4609 90.1172 32.3842 87.3192 29.8115L90.6662 16.6875H84.9993C79.7929 16.6875 75.1885 19.0342 72.0717 22.6498C70.7259 22.4586 69.3977 22.25 67.9987 22.25H45.3311C31.6243 22.25 20.202 31.8105 17.5634 44.5H9.91306C7.29213 44.5 5.22017 42.1533 5.75144 39.4937C6.14104 37.5121 8.0359 36.1562 10.0902 36.1562H10.2672C10.8516 36.1562 11.3298 35.6869 11.3298 35.1133V31.6367C11.3298 31.0631 10.8516 30.5938 10.2672 30.5938C5.22017 30.5938 0.722078 34.1398 0.0845529 39.0418C-0.694644 44.9867 4.01596 50.0625 9.91306 50.0625H16.9967C16.9967 59.1363 21.4948 67.115 28.3305 72.1908V86.2188C28.3305 87.7484 29.6055 89 31.1639 89H42.4977C44.0561 89 45.3311 87.7484 45.3311 86.2188V77.875H67.9987V86.2188C67.9987 87.7484 69.2737 89 70.8321 89H82.1659C83.7243 89 84.9993 87.7484 84.9993 86.2188V72.1908C87.089 70.6437 88.9484 68.8186 90.5423 66.75H99.1666C100.725 66.75 102 65.4984 102 63.9688V41.7188C102 40.1891 100.725 38.9375 99.1666 38.9375ZM76.499 50.0625C74.9406 50.0625 73.6656 48.8109 73.6656 47.2812C73.6656 45.7516 74.9406 44.5 76.499 44.5C78.0574 44.5 79.3324 45.7516 79.3324 47.2812C79.3324 48.8109 78.0574 50.0625 76.499 50.0625ZM45.3311 16.6875H67.9987C68.955 16.6875 69.8935 16.757 70.8144 16.8266C70.8144 16.7744 70.8321 16.7396 70.8321 16.6875C70.8321 7.47461 63.2172 0 53.8314 0C44.4457 0 36.8308 7.47461 36.8308 16.6875C36.8308 17.0525 36.9193 17.4002 36.937 17.7652C39.6288 17.0873 42.4268 16.6875 45.3311 16.6875Z" fill="white"/>
</svg>
